<svg width="374" height="220" viewBox="0 0 374 220" fill="none" xmlns="http://www.w3.org/2000/svg">
<g clip-path="url(#clip0_284_12650)">
<rect x="-3" y="-83" width="380" height="406.308"/>
<rect x="-3" y="-83" width="380" height="406.308" fill="black" fill-opacity="0.1"/>
<rect x="16" y="16" width="110" height="34" rx="17" fill="white"/>
<path d="M28.9062 34.1172C28.9062 33.4297 28.9531 32.7578 29.0469 32.1016C29.1458 31.4453 29.3099 30.8359 29.5391 30.2734C29.7682 29.7057 30.0807 29.2083 30.4766 28.7812C30.8724 28.3542 31.3646 28.0208 31.9531 27.7812C32.5469 27.5365 33.2578 27.4141 34.0859 27.4141C34.3203 27.4141 34.5729 27.4271 34.8438 27.4531C35.1146 27.474 35.3385 27.5104 35.5156 27.5625V28.6797C35.3229 28.612 35.1016 28.5625 34.8516 28.5312C34.6068 28.5 34.3594 28.4844 34.1094 28.4844C33.1406 28.4844 32.3776 28.6953 31.8203 29.1172C31.2682 29.5391 30.8698 30.112 30.625 30.8359C30.3802 31.5547 30.2396 32.3646 30.2031 33.2656H30.2891C30.4505 33.0052 30.6562 32.7708 30.9062 32.5625C31.1562 32.349 31.4583 32.1797 31.8125 32.0547C32.1719 31.9297 32.5885 31.8672 33.0625 31.8672C33.7292 31.8672 34.3099 32.0026 34.8047 32.2734C35.3047 32.5443 35.6901 32.9375 35.9609 33.4531C36.237 33.9688 36.375 34.5938 36.375 35.3281C36.375 36.1146 36.2292 36.7943 35.9375 37.3672C35.6458 37.9401 35.2292 38.3828 34.6875 38.6953C34.151 39.0026 33.5104 39.1562 32.7656 39.1562C32.2083 39.1562 31.6953 39.0495 31.2266 38.8359C30.7578 38.6224 30.349 38.3047 30 37.8828C29.6562 37.4609 29.388 36.9375 29.1953 36.3125C29.0026 35.6823 28.9062 34.9505 28.9062 34.1172ZM32.75 38.0625C33.4583 38.0625 34.026 37.8359 34.4531 37.3828C34.8802 36.9297 35.0938 36.2448 35.0938 35.3281C35.0938 34.5781 34.9036 33.9844 34.5234 33.5469C34.1432 33.1094 33.5703 32.8906 32.8047 32.8906C32.2839 32.8906 31.8307 33 31.4453 33.2188C31.0599 33.4323 30.7604 33.7031 30.5469 34.0312C30.3333 34.3594 30.2266 34.6927 30.2266 35.0312C30.2266 35.375 30.276 35.724 30.375 36.0781C30.4792 36.4323 30.6354 36.7604 30.8438 37.0625C31.0521 37.3646 31.3151 37.6068 31.6328 37.7891C31.9505 37.9714 32.3229 38.0625 32.75 38.0625ZM52.4566 30.2812C53.3993 30.2812 54.1102 30.5286 54.5894 31.0234C55.0685 31.513 55.3081 32.3021 55.3081 33.3906V39H54.0269V33.4531C54.0269 32.7604 53.8758 32.2422 53.5737 31.8984C53.2769 31.5495 52.8342 31.375 52.2456 31.375C51.4175 31.375 50.8159 31.6146 50.4409 32.0938C50.0659 32.5729 49.8784 33.2786 49.8784 34.2109V39H48.5894V33.4531C48.5894 32.9896 48.5217 32.6042 48.3862 32.2969C48.256 31.9896 48.0581 31.7604 47.7925 31.6094C47.5321 31.4531 47.2014 31.375 46.8003 31.375C46.2326 31.375 45.7769 31.4922 45.4331 31.7266C45.0894 31.9609 44.8394 32.3099 44.6831 32.7734C44.5321 33.2318 44.4566 33.7969 44.4566 34.4688V39H43.1597V30.4375H44.2066L44.4019 31.6484H44.4722C44.6441 31.3516 44.8602 31.1016 45.1206 30.8984C45.381 30.6953 45.6727 30.5417 45.9956 30.4375C46.3185 30.3333 46.6623 30.2812 47.0269 30.2812C47.6779 30.2812 48.2222 30.4036 48.6597 30.6484C49.1024 30.888 49.4227 31.2552 49.6206 31.75H49.6909C49.9722 31.2552 50.3576 30.888 50.8472 30.6484C51.3368 30.4036 51.8732 30.2812 52.4566 30.2812ZM59.5091 30.4375V39H58.2122V30.4375H59.5091ZM58.8762 27.2344C59.0898 27.2344 59.2721 27.3047 59.4231 27.4453C59.5794 27.5807 59.6575 27.7943 59.6575 28.0859C59.6575 28.3724 59.5794 28.5859 59.4231 28.7266C59.2721 28.8672 59.0898 28.9375 58.8762 28.9375C58.6523 28.9375 58.4648 28.8672 58.3137 28.7266C58.1679 28.5859 58.095 28.3724 58.095 28.0859C58.095 27.7943 58.1679 27.5807 58.3137 27.4453C58.4648 27.3047 58.6523 27.2344 58.8762 27.2344ZM66.5537 30.2812C67.5694 30.2812 68.3376 30.5312 68.8584 31.0312C69.3793 31.526 69.6397 32.3229 69.6397 33.4219V39H68.3584V33.5078C68.3584 32.7943 68.1944 32.2604 67.8662 31.9062C67.5433 31.5521 67.0459 31.375 66.3741 31.375C65.4261 31.375 64.7595 31.6432 64.3741 32.1797C63.9886 32.7161 63.7959 33.4948 63.7959 34.5156V39H62.4991V30.4375H63.5459L63.7412 31.6719H63.8116C63.9939 31.3698 64.2256 31.1172 64.5069 30.9141C64.7881 30.7057 65.1032 30.5495 65.4522 30.4453C65.8011 30.3359 66.1683 30.2812 66.5537 30.2812ZM80.2291 27.5781C81.1666 27.5781 81.94 27.6953 82.5494 27.9297C83.164 28.1589 83.6223 28.5104 83.9244 28.9844C84.2265 29.4583 84.3775 30.0625 84.3775 30.7969C84.3775 31.401 84.2681 31.9062 84.0494 32.3125C83.8306 32.7135 83.5442 33.0391 83.19 33.2891C82.8358 33.5391 82.4582 33.7318 82.0572 33.8672L85.19 39H83.6431L80.8462 34.2344H78.4712V39H77.1431V27.5781H80.2291ZM80.1509 28.7266H78.4712V33.1094H80.2837C81.216 33.1094 81.9009 32.9193 82.3384 32.5391C82.7811 32.1589 83.0025 31.599 83.0025 30.8594C83.0025 30.0833 82.7681 29.5339 82.2994 29.2109C81.8358 28.888 81.1197 28.7266 80.1509 28.7266ZM90.3597 30.2812C91.0889 30.2812 91.7139 30.4427 92.2347 30.7656C92.7555 31.0885 93.154 31.5417 93.43 32.125C93.706 32.7031 93.8441 33.3802 93.8441 34.1562V34.9609H87.93C87.9456 35.9661 88.1956 36.7318 88.68 37.2578C89.1644 37.7839 89.8467 38.0469 90.7269 38.0469C91.2685 38.0469 91.7477 37.9974 92.1644 37.8984C92.581 37.7995 93.0133 37.6536 93.4613 37.4609V38.6016C93.029 38.7943 92.5993 38.9349 92.1722 39.0234C91.7503 39.112 91.2503 39.1562 90.6722 39.1562C89.8493 39.1562 89.1305 38.9896 88.5159 38.6562C87.9066 38.3177 87.4326 37.8229 87.0941 37.1719C86.7555 36.5208 86.5863 35.724 86.5863 34.7812C86.5863 33.8594 86.7399 33.0625 87.0472 32.3906C87.3597 31.7135 87.7972 31.1927 88.3597 30.8281C88.9274 30.4635 89.5941 30.2812 90.3597 30.2812ZM90.3441 31.3438C89.6514 31.3438 89.0993 31.5703 88.6878 32.0234C88.2764 32.4766 88.0316 33.1094 87.9534 33.9219H92.4847C92.4795 33.4115 92.3988 32.9635 92.2425 32.5781C92.0915 32.1875 91.8597 31.8854 91.5472 31.6719C91.2347 31.4531 90.8336 31.3438 90.3441 31.3438ZM99.4903 30.2969C100.511 30.2969 101.269 30.526 101.764 30.9844C102.259 31.4427 102.506 32.1745 102.506 33.1797V39H101.561L101.311 37.7344H101.248C101.009 38.0469 100.759 38.3099 100.498 38.5234C100.238 38.7318 99.9356 38.8906 99.5919 39C99.2533 39.1042 98.8367 39.1562 98.3419 39.1562C97.821 39.1562 97.3575 39.0651 96.9512 38.8828C96.5502 38.7005 96.2325 38.4245 95.9981 38.0547C95.769 37.6849 95.6544 37.2161 95.6544 36.6484C95.6544 35.7943 95.9929 35.138 96.67 34.6797C97.3471 34.2214 98.3783 33.9714 99.7637 33.9297L101.24 33.8672V33.3438C101.24 32.6042 101.081 32.0859 100.764 31.7891C100.446 31.4922 99.9981 31.3438 99.42 31.3438C98.9721 31.3438 98.545 31.4089 98.1387 31.5391C97.7325 31.6693 97.3471 31.8229 96.9825 32L96.5841 31.0156C96.9695 30.8177 97.4122 30.6484 97.9122 30.5078C98.4122 30.3672 98.9382 30.2969 99.4903 30.2969ZM101.225 34.7812L99.92 34.8359C98.8523 34.8776 98.0997 35.0521 97.6622 35.3594C97.2247 35.6667 97.0059 36.1016 97.0059 36.6641C97.0059 37.1536 97.1544 37.5156 97.4512 37.75C97.7481 37.9844 98.1414 38.1016 98.6309 38.1016C99.3914 38.1016 100.014 37.8906 100.498 37.4688C100.982 37.0469 101.225 36.4141 101.225 35.5703V34.7812ZM108.465 39.1562C107.381 39.1562 106.522 38.7865 105.887 38.0469C105.256 37.3073 104.941 36.2083 104.941 34.75C104.941 33.276 105.264 32.1641 105.91 31.4141C106.556 30.6589 107.415 30.2812 108.488 30.2812C108.941 30.2812 109.337 30.3411 109.676 30.4609C110.014 30.5807 110.306 30.7422 110.551 30.9453C110.795 31.1432 111.001 31.3698 111.168 31.625H111.262C111.241 31.4635 111.22 31.2422 111.199 30.9609C111.178 30.6797 111.168 30.4505 111.168 30.2734V26.8438H112.465V39H111.418L111.223 37.7812H111.168C111.006 38.0365 110.801 38.2682 110.551 38.4766C110.306 38.6849 110.012 38.8516 109.668 38.9766C109.329 39.0964 108.928 39.1562 108.465 39.1562ZM108.668 38.0781C109.584 38.0781 110.233 37.8177 110.613 37.2969C110.993 36.776 111.183 36.0026 111.183 34.9766V34.7422C111.183 33.6536 111.001 32.8177 110.637 32.2344C110.277 31.651 109.621 31.3594 108.668 31.3594C107.871 31.3594 107.275 31.6667 106.879 32.2812C106.483 32.8906 106.285 33.724 106.285 34.7812C106.285 35.8333 106.48 36.6458 106.871 37.2188C107.267 37.7917 107.866 38.0781 108.668 38.0781Z" fill="#191925"/>
<rect y="120" width="373" height="100" fill="url(#paint0_linear_284_12650)"/>
</g>
<defs>
<linearGradient id="paint0_linear_284_12650" x1="186.5" y1="120" x2="186.5" y2="220" gradientUnits="userSpaceOnUse">
<stop stop-color="#7240FD" stop-opacity="0"/>
<stop offset="1" stop-color="#7240FD" stop-opacity="0.4"/>
</linearGradient>
<clipPath id="clip0_284_12650">
<rect x="0.333008" width="373.333" height="220" rx="10" fill="white"/>
</clipPath>
</defs>
</svg>
