<svg width="166" height="190" viewBox="0 0 166 190" fill="none" xmlns="http://www.w3.org/2000/svg">
<path d="M109.922 186.182C106.465 189.366 90.6934 183.419 88.954 178.627C87.2146 173.834 89.9822 156.345 89.9822 156.345C89.9822 156.345 105.025 150.964 104.074 154.561C102.135 161.912 102.842 168.091 102.842 168.091C102.842 168.091 114.963 169.903 114.057 175.863C113.545 179.243 107.933 177.893 107.933 177.893C107.933 177.893 113.373 182.998 109.917 186.177" fill="url(#paint0_linear_284_12562)"/>
<path d="M105.827 180.697C105.827 180.697 105.573 180.407 105.08 180.316" stroke="#FFB164" stroke-width="4.55431" stroke-linecap="round" stroke-linejoin="round"/>
<path d="M54.0536 165.903C54.0536 165.903 53.6686 168.833 53.6686 172.738C53.6686 172.738 64.9338 181.62 59.4575 186.626C56.5268 189.303 49.447 185.711 47.3543 182.92C47.3543 182.92 46.7972 190.172 41.3571 189.896C35.917 189.615 34.5219 178.875 34.8027 173.992C35.0836 169.11 37.593 160.182 37.593 160.182L54.0536 165.903Z" fill="url(#paint1_linear_284_12562)"/>
<path d="M56.7578 181.404L55.4986 179.705" stroke="#FFB164" stroke-width="4.55431" stroke-linecap="round" stroke-linejoin="round"/>
<path d="M43.6533 181.403V181.96" stroke="#FFB164" stroke-width="4.55431" stroke-linecap="round" stroke-linejoin="round"/>
<path d="M109.383 173.562C109.383 173.562 108.563 172.842 106.946 172.625" stroke="#FFB164" stroke-width="4.55431" stroke-linecap="round" stroke-linejoin="round"/>
<path d="M126.727 109.098C126.727 109.098 159.535 97.5476 150.448 61.3288C140.927 23.3615 90.8886 6.57933 48.4325 20.1818C7.30811 33.3584 -4.33299 69.935 23.0938 102.358" fill="white"/>
<path d="M126.726 109.098C126.726 109.098 132.846 157.189 88.0208 168.39C43.2002 179.592 3.49815 137.449 3.49815 132.742C3.49815 128.036 16.9058 128.829 21.3222 100.106" fill="white"/>
<path d="M122.744 136.674C105.948 162.683 31.4362 164.391 31.8982 114.832C31.8982 114.832 -4.20737 160.183 66.2281 169.323C118.328 176.081 122.744 136.678 122.744 136.678V136.674Z" fill="#E9E9FF"/>
<path d="M31.9714 27.433C31.9714 27.433 30.146 2.90966 42.8063 3.00025C50.4432 3.05461 51.6843 17.5584 51.6843 17.5584C51.6843 17.5584 58.1164 0.640323 66.6864 4.35914C71.4244 6.41558 69.0463 16.6253 66.9763 18.9762" fill="#7240FD"/>
<path d="M31.9714 27.433C31.9714 27.433 30.146 2.90966 42.8063 3.00025C50.4432 3.05461 51.6843 17.5584 51.6843 17.5584C51.6843 17.5584 58.1164 0.640323 66.6864 4.35914C71.4244 6.41558 69.0463 16.6253 66.9763 18.9762" stroke="#7240FD" stroke-width="5.69289" stroke-linecap="round" stroke-linejoin="round"/>
<path d="M142.299 47.8524C128.524 25.7932 104.608 28.9322 109.246 74.6723L88.8313 74.2193C88.8313 74.2193 87.4226 44.6817 56.9609 35.405C28.37 26.6991 7.59265 61.9033 25.693 86.1458C37.7916 102.348 46.9188 100.831 49.6592 114.655C51.4982 123.941 17.0912 93.905 17.0912 93.905C17.0912 93.905 0.309036 70.65 13.0282 45.4472C25.7473 20.2444 73.3672 12.4943 100.98 18.2333C137.375 25.7932 142.294 47.8524 142.294 47.8524H142.299Z" fill="#7240FD"/>
<path d="M126.727 109.098C126.727 109.098 159.535 97.5476 150.448 61.3288C140.927 23.3615 90.8886 6.57933 48.4325 20.1818C7.3081 33.3584 -4.333 69.935 23.0938 102.358" stroke="#7240FD" stroke-width="5.69289" stroke-linecap="round" stroke-linejoin="round"/>
<path d="M48.3276 110.016C53.1924 120.362 46.6063 145.08 40.9624 146.217C35.3185 147.354 29.7879 128.488 31.9032 114.827C34.0185 101.165 44.8624 102.642 48.3276 110.012V110.016Z" fill="#7240FD"/>
<path d="M58.2159 56.441C67.4246 53.4469 73.3991 72.7702 65.0692 75.8911C55.5978 79.4378 49.0298 59.4305 58.2159 56.441Z" fill="#411DA9"/>
<path d="M53.2431 60.4675C53.533 61.9306 54.9553 62.8818 56.4183 62.5919C57.8814 62.302 58.8326 60.8797 58.5427 59.4166C58.2528 57.9536 56.8305 57.0023 55.3675 57.2922C53.9044 57.5821 52.9532 59.0044 53.2431 60.4675Z" fill="white"/>
<path d="M62.1652 67.9679C62.1652 67.9679 63.4063 65.9703 65.2952 67.1435C67.1886 68.3212 66.1558 73.0275 62.6635 73.2721C59.1711 73.5167 57.0875 68.9735 58.7227 67.2975C60.6025 65.3679 62.1652 67.9633 62.1652 67.9633V67.9679Z" fill="#7240FD"/>
<path d="M122.804 55.0773C131.886 52.124 137.784 71.1846 129.562 74.2603C120.218 77.7571 113.74 58.0216 122.804 55.0773Z" fill="#411DA9"/>
<path d="M120.511 61.1923C119.04 61.1923 117.848 59.9999 117.848 58.5289C117.848 57.0579 119.04 55.8655 120.511 55.8655C121.982 55.8655 123.175 57.0579 123.175 58.5289C123.175 59.9999 121.982 61.1923 120.511 61.1923Z" fill="white"/>
<path d="M126.699 66.4422C126.699 66.4422 127.922 64.4719 129.788 65.6314C131.655 66.791 130.635 71.4384 127.193 71.6785C123.75 71.9185 121.694 67.4387 123.307 65.7854C125.159 63.883 126.699 66.4422 126.699 66.4422Z" fill="#7240FD"/>
<path d="M58.6094 47.9199L52.0142 50.6241" stroke="#4516A8" stroke-width="4.55431" stroke-linecap="round" stroke-linejoin="round"/>
<path d="M123.053 48.0383L128.524 50.1446" stroke="#4516A8" stroke-width="4.55431" stroke-linecap="round" stroke-linejoin="round"/>
<path d="M41.1123 73.409C42.4848 69.2372 53.7862 71.2484 52.8304 75.855C51.8747 80.4616 39.4409 78.4822 41.1123 73.409Z" fill="#F3A2D9"/>
<path d="M132.615 74.7406C133.91 70.8089 144.559 72.7022 143.658 77.0461C142.756 81.39 131.038 79.5239 132.615 74.7406Z" fill="#F3A2D9"/>
<path d="M78.5628 99.1548C80.4335 96.9941 87.1509 99.6077 93.4426 99.8976C101.809 100.283 105.845 99.0959 106.991 101.61C108.005 103.847 102.755 110.687 91.9161 109.962C81.3711 109.256 76.8008 101.189 78.5628 99.1548Z" fill="#E9E9FF"/>
<path d="M63.144 24.095C62.8677 18.8226 76.1304 16.8069 90.4893 18.6368C104.848 20.4668 112.807 25.0009 110.302 29.0187C108.173 32.434 95.7255 34.264 83.5771 32.6469C71.4287 31.0299 63.3433 27.8999 63.144 24.0996V24.095Z" fill="#7E6BFD"/>
<path d="M39.6445 6.83228C39.6445 6.83228 37.6334 8.41764 37.0581 11.3891" stroke="#7E6BFD" stroke-width="4.55431" stroke-linecap="round" stroke-linejoin="round"/>
<path d="M61.7119 6.35254C61.7119 6.35254 61.2046 6.47031 60.3259 7.72954" stroke="#7E6BFD" stroke-width="4.55431" stroke-linecap="round" stroke-linejoin="round"/>
<path d="M44.1016 121.703C44.1016 121.703 44.1015 123.08 43.5082 125.997" stroke="#7E6BFD" stroke-width="4.55431" stroke-linecap="round" stroke-linejoin="round"/>
<path d="M107.855 70.4416C105.319 65.6809 102.284 63.09 97.9581 63.7966C93.6323 64.5033 90.1038 69.3409 89.1344 70.1109C87.608 71.3249 82.8156 70.8764 81.6334 74.79C80.125 79.7771 92.4229 82.7032 100.585 82.7032C108.748 82.7032 114.174 79.4057 113.59 76.312C112.96 72.9736 108.915 72.4437 107.851 70.4416H107.855Z" fill="#FD8902"/>
<path d="M105.949 76.4707C105.949 76.4707 100.151 76.5794 96.0158 75.4062" stroke="#E05000" stroke-width="4.55431" stroke-linecap="round" stroke-linejoin="round"/>
<path opacity="0.25" d="M51.6798 98.6661C31.8068 98.6661 15.6966 82.3531 15.6966 62.2299C15.6966 42.1068 31.8068 25.7937 51.6798 25.7937C71.5528 25.7937 87.6631 42.1068 87.6631 62.2299C87.6631 82.3531 71.5528 98.6661 51.6798 98.6661Z" fill="white"/>
<path opacity="0.25" d="M109.149 67.6753C104.504 49.1152 111.583 31.3555 124.959 28.0079C138.336 24.6604 152.945 36.9926 157.59 55.5528C162.235 74.113 155.156 91.8727 141.78 95.2202C128.403 98.5677 113.794 86.2355 109.149 67.6753Z" fill="white"/>
<path d="M51.6798 98.6661C31.8068 98.6661 15.6966 82.3531 15.6966 62.2299C15.6966 42.1068 31.8068 25.7937 51.6798 25.7937C71.5528 25.7937 87.6631 42.1068 87.6631 62.2299C87.6631 82.3531 71.5528 98.6661 51.6798 98.6661Z" stroke="#3B4160" stroke-width="4.55431" stroke-linecap="round" stroke-linejoin="round"/>
<path d="M109.149 67.6753C104.504 49.1152 111.583 31.3555 124.959 28.0079C138.336 24.6604 152.945 36.9926 157.59 55.5528C162.235 74.113 155.156 91.8727 141.78 95.2202C128.403 98.5677 113.794 86.2355 109.149 67.6753Z" stroke="#3B4160" stroke-width="4.55431" stroke-linecap="round" stroke-linejoin="round"/>
<path d="M108.31 62.6419C108.31 62.6419 98.3807 48.0474 87.6092 64.721" stroke="#3B4160" stroke-width="4.55431" stroke-linecap="round" stroke-linejoin="round"/>
<path d="M101.456 68.2134C101.456 68.2134 100.161 67.4389 98.8606 68.141" stroke="#FFB164" stroke-width="4.55431" stroke-linecap="round" stroke-linejoin="round"/>
<path d="M112.132 79.4872C115.86 76.7422 125.97 81.1133 133.376 93.9049C138.703 103.109 139.02 112.63 132.47 116.888C122.745 123.207 123.053 107.829 117.844 97.4516C112.454 86.7164 108.287 82.3136 112.128 79.4872H112.132Z" fill="#7240FD"/>
<path d="M125.789 91.6047C125.789 91.6047 124.634 89.6026 122.75 87.9629" stroke="#7E6BFD" stroke-width="4.55431" stroke-linecap="round" stroke-linejoin="round"/>
<path d="M34.7714 112.363C34.7714 112.363 24.471 128.706 29.739 144.809C34.7714 160.178 52.7041 164.39 52.7041 164.39C52.7041 164.39 34.7714 164.422 10.5289 142.15C1.12085 133.503 3.12747 132.461 10.5289 126.011C19.9776 117.771 22.2515 96.1335 22.2515 96.1335V95.2275L37.0588 107.041L34.7668 112.368L34.7714 112.363Z" fill="#7240FD"/>
<path d="M126.726 109.097C126.79 109.595 135.568 158.302 88.0206 168.39C43.1411 177.911 3.49796 136.542 3.49796 131.836C3.49796 128.434 17.3586 129.734 21.775 101.012" stroke="#7240FD" stroke-width="5.69289" stroke-linecap="round" stroke-linejoin="round"/>
<path d="M11.8418 129.34C11.8418 129.34 11.0038 130.518 9.22368 131.31" stroke="#7E6BFD" stroke-width="4.55431" stroke-linecap="round" stroke-linejoin="round"/>
<defs>
<linearGradient id="paint0_linear_284_12562" x1="100.124" y1="173.259" x2="97.062" y2="166.116" gradientUnits="userSpaceOnUse">
<stop stop-color="#FD8902"/>
<stop offset="1" stop-color="#E05000"/>
</linearGradient>
<linearGradient id="paint1_linear_284_12562" x1="48.0111" y1="177.648" x2="49.7324" y2="166.016" gradientUnits="userSpaceOnUse">
<stop stop-color="#FD8902"/>
<stop offset="1" stop-color="#E05000"/>
</linearGradient>
</defs>
</svg>
