<svg width="166" height="32" viewBox="0 0 166 32" fill="none" xmlns="http://www.w3.org/2000/svg">
<path d="M40.4785 24.9533V6.16064H47.4913C48.7692 6.16064 49.9002 6.39152 50.8842 6.85452C51.8682 7.31751 52.6374 7.98917 53.1917 8.87318C53.7461 9.75719 54.0239 10.8276 54.0239 12.0895C54.0239 13.334 53.7424 14.397 53.1794 15.281C52.6152 16.1638 51.846 16.8416 50.8718 17.312C49.8965 17.7824 48.7692 18.0183 47.4913 18.0183H43.9084V24.9558H40.4785V24.9533ZM43.9084 14.9897H47.5407C48.163 14.9897 48.7013 14.8674 49.1557 14.6242C49.61 14.381 49.9631 14.0402 50.215 13.6031C50.4669 13.1661 50.5928 12.6611 50.5928 12.0895C50.5928 11.5005 50.4669 10.9918 50.215 10.5634C49.9631 10.135 49.61 9.79794 49.1557 9.55471C48.7013 9.31149 48.163 9.18925 47.5407 9.18925H43.9084V14.9897Z" fill="#3F454C"/>
<path d="M56.0439 24.9521V5.85693H59.3491V13.9291L58.8948 13.4501C59.2145 12.6265 59.7393 11.9993 60.4714 11.5709C61.2036 11.1425 62.0567 10.9276 63.0321 10.9276C64.0408 10.9276 64.9372 11.1462 65.7187 11.5832C66.5002 12.0203 67.1101 12.6302 67.5472 13.4118C67.9843 14.1933 68.2028 15.0983 68.2028 16.1231V24.9521H64.8976V16.9046C64.8976 16.2996 64.7803 15.7786 64.5445 15.3403C64.3087 14.9032 63.9852 14.5625 63.5729 14.3192C63.1605 14.076 62.6777 13.9538 62.1221 13.9538C61.5838 13.9538 61.1048 14.076 60.6838 14.3192C60.2628 14.5637 59.9356 14.9032 59.6998 15.3403C59.4639 15.7774 59.3466 16.2984 59.3466 16.9046V24.9521H56.0439Z" fill="#3F454C"/>
<path d="M71.9086 30.5278C71.5382 30.5278 71.1764 30.4982 70.8233 30.4402C70.4702 30.3809 70.1504 30.2846 69.8652 30.15V27.3758C70.0837 27.4264 70.348 27.477 70.6603 27.5276C70.9715 27.5783 71.2616 27.6029 71.5307 27.6029C72.2876 27.6029 72.8382 27.4264 73.1827 27.0733C73.5272 26.7202 73.8346 26.2572 74.1038 25.6855L75.0112 23.5669L74.9606 26.3411L68.9824 11.2314H72.5395L76.7274 22.3816H75.4656L79.6276 11.2314H83.2093L77.2311 26.3399C76.878 27.2313 76.4496 27.9882 75.9446 28.6104C75.4397 29.2327 74.8557 29.708 74.1914 30.0352C73.5272 30.3636 72.7666 30.5278 71.9086 30.5278Z" fill="#3F454C"/>
<path d="M89.7439 25.2559C88.2809 25.2559 87.0067 24.9065 85.9227 24.2089C84.8374 23.5113 84.0942 22.5656 83.6904 21.3704L86.1622 20.1852C86.5153 20.9593 87.0067 21.5643 87.6376 22.0013C88.2685 22.4384 88.9698 22.6569 89.7439 22.6569C90.3489 22.6569 90.8292 22.5224 91.1823 22.2532C91.5354 21.9841 91.712 21.631 91.712 21.1939C91.712 20.9247 91.6404 20.7025 91.4971 20.5259C91.3539 20.3494 91.1601 20.1975 90.9168 20.0716C90.6724 19.9456 90.4082 19.8407 90.1217 19.7567L87.8771 19.1258C86.7166 18.79 85.8375 18.2764 85.2411 17.5875C84.6436 16.8985 84.346 16.0824 84.346 15.1404C84.346 14.2996 84.5608 13.5637 84.9893 12.9328C85.4177 12.3019 86.0153 11.8105 86.7808 11.4574C87.5462 11.1043 88.4241 10.9277 89.4167 10.9277C90.7119 10.9277 91.8552 11.2389 92.8478 11.8611C93.8405 12.4834 94.5467 13.3575 94.9665 14.4848L92.4441 15.67C92.2083 15.0478 91.8132 14.5514 91.2588 14.1823C90.7033 13.8131 90.081 13.6279 89.3921 13.6279C88.8365 13.6279 88.3994 13.7539 88.0808 14.0057C87.7611 14.2576 87.6018 14.586 87.6018 14.9897C87.6018 15.2416 87.6685 15.4601 87.8031 15.6453C87.9376 15.8305 88.1265 15.9824 88.371 16.0997C88.6142 16.217 88.897 16.3269 89.2155 16.4281L91.4107 17.0837C92.5367 17.4208 93.4071 17.9245 94.022 18.5974C94.6356 19.2703 94.943 20.0938 94.943 21.0692C94.943 21.8939 94.7245 22.6211 94.2875 23.2508C93.8504 23.8817 93.2442 24.3731 92.4713 24.7262C91.6947 25.0793 90.7872 25.2559 89.7439 25.2559Z" fill="#3F454C"/>
<path d="M96.9834 9.69176V6.16064H100.289V9.69176H96.9834ZM96.9834 24.9533V11.2314H100.289V24.9545H96.9834V24.9533Z" fill="#3F454C"/>
<path d="M109.548 25.2556C108.202 25.2556 106.979 24.9445 105.878 24.3223C104.776 23.7 103.901 22.8505 103.254 21.7739C102.606 20.6985 102.282 19.4701 102.282 18.091C102.282 16.7119 102.606 15.4846 103.254 14.408C103.901 13.3314 104.771 12.4832 105.865 11.8597C106.958 11.2374 108.186 10.9263 109.548 10.9263C110.894 10.9263 112.113 11.2374 113.205 11.8597C114.298 12.4819 115.168 13.3277 115.816 14.3944C116.463 15.4624 116.788 16.6946 116.788 18.0897C116.788 19.4688 116.46 20.6961 115.804 21.7727C115.149 22.8493 114.273 23.6988 113.181 24.321C112.087 24.9445 110.877 25.2556 109.548 25.2556ZM109.548 22.2283C110.288 22.2283 110.94 22.0517 111.503 21.6986C112.066 21.3455 112.511 20.8541 112.84 20.2232C113.168 19.5923 113.331 18.8824 113.331 18.0922C113.331 17.2847 113.167 16.5748 112.84 15.9599C112.511 15.3463 112.066 14.8586 111.503 14.4969C110.938 14.1351 110.288 13.9549 109.548 13.9549C108.791 13.9549 108.127 14.1364 107.555 14.4969C106.984 14.8586 106.534 15.3463 106.206 15.9599C105.878 16.5736 105.715 17.2847 105.715 18.0922C105.715 18.8824 105.879 19.5935 106.206 20.2232C106.534 20.8541 106.984 21.3455 107.555 21.6986C108.127 22.0517 108.791 22.2283 109.548 22.2283Z" fill="#3F454C"/>
<path d="M119.057 24.9533V6.16064H122.488V14.3587H130.485V6.16064H133.94V24.9533H130.485V17.3861H122.488V24.9533H119.057Z" fill="#3F454C"/>
<path d="M141.659 25.2564C140.6 25.2564 139.679 25.0206 138.897 24.5502C138.116 24.0798 137.518 23.4242 137.106 22.5821C136.693 21.7413 136.487 20.7573 136.487 19.6313V11.2307H139.792V19.3535C139.792 19.9252 139.906 20.4252 140.133 20.8549C140.36 21.2845 140.689 21.6203 141.117 21.8636C141.546 22.108 142.03 22.229 142.568 22.229C143.106 22.229 143.585 22.1068 144.006 21.8636C144.426 21.6203 144.755 21.2796 144.99 20.8413C145.226 20.4042 145.343 19.8832 145.343 19.277V11.2295H148.647V24.9527H145.52V22.2537L145.798 22.7328C145.478 23.5736 144.953 24.2045 144.221 24.6242C143.488 25.0453 142.633 25.2564 141.659 25.2564Z" fill="#3F454C"/>
<path d="M158.712 25.2558C157.719 25.2558 156.807 25.0583 155.974 24.6632C155.142 24.2681 154.482 23.7001 153.994 22.9606L154.322 22.305V24.9533H151.22V5.85693H154.525V13.9538L154.02 13.2723C154.49 12.5327 155.13 11.9561 155.937 11.5437C156.745 11.1314 157.678 10.9252 158.738 10.9252C160.033 10.9252 161.201 11.245 162.244 11.8833C163.286 12.5228 164.114 13.3797 164.728 14.4563C165.342 15.5329 165.649 16.7441 165.649 18.0886C165.649 19.4171 165.347 20.6283 164.742 21.721C164.137 22.8149 163.312 23.6755 162.27 24.3064C161.225 24.9397 160.04 25.2558 158.712 25.2558ZM158.334 22.2284C159.091 22.2284 159.764 22.0519 160.352 21.6988C160.941 21.3457 161.399 20.858 161.727 20.2357C162.055 19.6134 162.218 18.8986 162.218 18.0911C162.218 17.2836 162.054 16.5737 161.727 15.9589C161.398 15.3452 160.94 14.8576 160.352 14.4958C159.764 14.134 159.091 13.9538 158.334 13.9538C157.61 13.9538 156.96 14.1303 156.379 14.4835C155.799 14.8366 155.345 15.328 155.018 15.9589C154.69 16.5898 154.526 17.2997 154.526 18.0911C154.526 18.8986 154.69 19.6134 155.018 20.2357C155.346 20.858 155.799 21.3457 156.379 21.6988C156.96 22.0519 157.61 22.2284 158.334 22.2284Z" fill="#3F454C"/>
<path d="M28.8624 6.87662L17.6049 0.37767C16.7389 -0.123286 15.6716 -0.123286 14.8056 0.37767L3.55325 6.87662C2.68721 7.37239 2.15617 8.29859 2.15617 9.29635V22.2953C2.15617 22.5733 2.19662 22.8471 2.27752 23.1053C1.00698 23.905 0.116045 25.2461 0.0102529 26.8309C-0.177476 29.7619 2.23811 32.1817 5.17332 31.9888C7.33998 31.8467 9.06066 30.2276 9.55124 28.1771L14.8056 31.214C15.6716 31.7149 16.7389 31.7149 17.6049 31.214L28.8624 24.715C29.7285 24.2193 30.2595 23.2931 30.2595 22.2953V9.29532C30.2595 8.29859 29.7274 7.37239 28.8624 6.87662ZM16.6746 22.3098H9.69334V15.3286C9.69334 11.3572 12.891 8.05382 16.8623 8.08597C20.7445 8.11709 23.8861 11.2587 23.9172 15.1408C23.9483 19.1122 20.6449 22.3098 16.6746 22.3098Z" fill="#7240FD"/>
<path d="M30.2586 9.2944V22.2933C30.2586 23.2901 29.7265 24.2173 28.8615 24.7131L17.604 31.212C16.7379 31.713 15.6707 31.713 14.8046 31.212L9.55029 28.1752C9.64156 27.7904 9.69238 27.3911 9.69238 26.9855V22.3089H16.6736C20.645 22.3089 23.9473 19.1113 23.9162 15.1399C23.8851 11.2578 20.7435 8.11617 16.8613 8.08506C12.89 8.0529 9.69238 11.3563 9.69238 15.3277V22.3089H5.01575C4.01798 22.3089 3.07208 22.5972 2.2776 23.1034C2.1967 22.8451 2.15625 22.5723 2.15625 22.2933V9.2944C2.15625 8.29767 2.68728 7.37044 3.55333 6.87467L14.8057 0.375717C15.6717 -0.125239 16.739 -0.125239 17.605 0.375717L28.8625 6.87467C29.7265 7.37148 30.2586 8.29767 30.2586 9.2944Z" fill="url(#paint0_linear_8110_7986)"/>
<path d="M5.01671 22.3091H9.69334V26.9857C9.69334 27.3902 9.64252 27.7906 9.55124 28.1754C9.06066 30.2259 7.33895 31.8449 5.17332 31.987C2.23708 32.1789 -0.177472 29.7602 0.0102569 26.8291C0.116049 25.2443 1.00802 23.9032 2.27752 23.1036C3.07304 22.5974 4.01894 22.3091 5.01671 22.3091Z" fill="#7240FD"/>
<defs>
<linearGradient id="paint0_linear_8110_7986" x1="0.47707" y1="31.5238" x2="26.5863" y2="5.41456" gradientUnits="userSpaceOnUse">
<stop offset="0.2234" stop-color="#AD96FF"/>
<stop offset="0.8591" stop-color="#7240FD"/>
</linearGradient>
</defs>
</svg>
